<svg xmlns="http://www.w3.org/2000/svg" viewBox="0 0 28.15 28.15"><defs><style>.cls-1{fill:#0092d8;}</style></defs><title>Recurso 1</title><g id="Capa_2" data-name="Capa 2"><g id="Capa_1-2" data-name="Capa 1"><path class="cls-1" d="M20,28.15H8.12A8.12,8.12,0,0,1,0,20V8.12A8.13,8.13,0,0,1,8.12,0H20a8.12,8.12,0,0,1,8.12,8.12V20A8.11,8.11,0,0,1,20,28.15Zm-2.27,0v-12h4l.6-4.66H17.76v-3c0-1.35.37-2.27,2.31-2.27h2.47V2.11a32.7,32.7,0,0,0-3.6-.18c-3.56,0-6,2.17-6,6.16v3.44h-4v4.66h4v12Z"/></g></g></svg>