<svg xmlns="http://www.w3.org/2000/svg" viewBox="0 0 41.27 32.59"><defs><style>.cls-1{fill:#0092d8;}</style></defs><title>Recurso 6</title><g id="Capa_2" data-name="Capa 2"><g id="Capa_1-2" data-name="Capa 1"><path class="cls-1" d="M31.71,19.14a9.57,9.57,0,1,1,9.56-9.56A9.58,9.58,0,0,1,31.71,19.14Z"/><path class="cls-1" d="M19.15,9.58A9.58,9.58,0,1,1,9.58,0,9.57,9.57,0,0,1,19.15,9.58Z"/><path class="cls-1" d="M34,32.39a.38.38,0,0,1-.15,0h-3a.25.25,0,0,1-.25-.14c-.67-1.26-1.35-2.52-2-3.78a.34.34,0,0,0-.12-.16v4c0,.11,0,.12-.11.12H25.8c-.07,0-.12,0-.11-.1a.33.33,0,0,0,0-.1V20.74c0-.24,0-.2.2-.2h2.47c.06,0,.09,0,.08.09v7a.18.18,0,0,0,.12-.12l2.1-3.16.07-.11s.05-.05.1-.05h2.92a1.07,1.07,0,0,1-.13.21l-2.49,3.4c-.12.17-.12.17,0,.34l2.78,4.14S34,32.32,34,32.39Z"/><path class="cls-1" d="M6.63,22.46a2.61,2.61,0,0,0-.83-.12.85.85,0,0,0-.32,0,.81.81,0,0,0-.6.61,2.1,2.1,0,0,0-.09.61c0,.15,0,.29,0,.44s0,.12.12.12H6.57c.19,0,.17,0,.17.17,0,.55,0,1.1,0,1.65,0,0,0,0,0,.05s0,.12-.12.12h-1a6.77,6.77,0,0,0-.78,0,4.17,4.17,0,0,0,0,.79v5.25c0,.22,0,.19-.2.19H2.19c-.15,0-.15,0-.15-.16v-6c0-.06,0-.08-.09-.08H.55c-.12,0-.13,0-.13-.12V24.28c0-.12,0-.12.13-.12H2c.14,0,.14,0,.14-.14a8,8,0,0,1,0-1.1,3.62,3.62,0,0,1,.31-1.17A2.2,2.2,0,0,1,3.72,20.6a4.5,4.5,0,0,1,1.09-.23,6.46,6.46,0,0,1,1.81.1h.06c.13,0,.13,0,.12.17,0,.58-.1,1.16-.16,1.74A.2.2,0,0,1,6.63,22.46Z"/><path class="cls-1" d="M24.49,30.12l0,1.16,0,.8c0,.14,0,.14-.13.19a7.6,7.6,0,0,1-1.24.26,6,6,0,0,1-1.4,0A4.65,4.65,0,0,1,19,31.42a3.84,3.84,0,0,1-1.23-2.36,4.78,4.78,0,0,1,.1-2.06,3.91,3.91,0,0,1,2.54-2.71A5.67,5.67,0,0,1,22.9,24a4.41,4.41,0,0,1,1.43.35c.16.07.16.07.14.24-.06.61-.11,1.22-.17,1.82,0,0,0,.06,0,.09l-.18-.1a2.85,2.85,0,0,0-2-.28,1.86,1.86,0,0,0-1.41,1.22,2.41,2.41,0,0,0-.05,1.75,2.09,2.09,0,0,0,1.64,1.35,3.45,3.45,0,0,0,2.05-.26l.11-.05Z"/><path class="cls-1" d="M8.18,26.45V20.72c0-.21,0-.18.19-.19h2.47c.06,0,.09,0,.09.09V32.2c0,.22,0,.2-.19.2H8.37c-.2,0-.19,0-.19-.19Z"/><path class="cls-1" d="M40.7,26.4a.25.25,0,0,1-.15,0,3.45,3.45,0,0,0-1.24,0A1.75,1.75,0,0,0,38,27.49a3.32,3.32,0,0,0-.23,1c0,.26,0,.51,0,.77v3c0,.14,0,.14-.14.14H35.17c-.15,0-.15,0-.15-.15V24.3c0-.14,0-.14.15-.14h2.21c.15,0,.15,0,.15.15v1.18a.3.3,0,0,0,0,.16c.05,0,.05-.06.06-.09a3,3,0,0,1,1-1.21,2.09,2.09,0,0,1,1-.36,4.29,4.29,0,0,1,1.13.06c.08,0,.09.05.08.12,0,.29,0,.59,0,.88l-.06,1Z"/><path class="cls-1" d="M16,28.27v4c0,.12,0,.12-.12.12h-2.5c-.13,0-.13,0-.13-.13v-8c0-.08,0-.1.11-.1h2.53c.11,0,.11,0,.11.11v4Z"/><path class="cls-1" d="M14.64,22.81H13.41c-.13,0-.13,0-.13-.13V20.85c0-.12,0-.13.12-.13h2.51c.12,0,.12,0,.12.13v1.83c0,.13,0,.13-.14.13Z"/></g></g></svg>