<svg xmlns="http://www.w3.org/2000/svg" viewBox="0 0 27.21 27.21"><defs><style>.cls-1{fill:#0092d8;}</style></defs><title>Recurso 2</title><g id="Capa_2" data-name="Capa 2"><g id="Capa_1-2" data-name="Capa 1"><path class="cls-1" d="M13.61,2.45c3.63,0,4.06,0,5.49.08A7.42,7.42,0,0,1,21.63,3a4.19,4.19,0,0,1,1.56,1,4.19,4.19,0,0,1,1,1.56,7.42,7.42,0,0,1,.47,2.53c.07,1.43.08,1.86.08,5.5s0,4.06-.08,5.49a7.42,7.42,0,0,1-.47,2.53,4.55,4.55,0,0,1-2.58,2.58,7.42,7.42,0,0,1-2.53.47c-1.43.06-1.86.08-5.49.08s-4.07,0-5.5-.08a7.42,7.42,0,0,1-2.53-.47,4.19,4.19,0,0,1-1.56-1,4.19,4.19,0,0,1-1-1.56,7.42,7.42,0,0,1-.47-2.53c-.06-1.43-.08-1.86-.08-5.49s0-4.07.08-5.5A7.42,7.42,0,0,1,3,5.58,4.19,4.19,0,0,1,4,4,4.19,4.19,0,0,1,5.58,3a7.42,7.42,0,0,1,2.53-.47c1.43-.06,1.86-.08,5.5-.08m0-2.45C9.91,0,9.45,0,8,.08A10.33,10.33,0,0,0,4.69.71a7,7,0,0,0-4,4A10.33,10.33,0,0,0,.08,8C0,9.45,0,9.91,0,13.61s0,4.15.08,5.6a10.33,10.33,0,0,0,.63,3.31,7,7,0,0,0,4,4A10.33,10.33,0,0,0,8,27.13c1.45.06,1.91.08,5.61.08s4.15,0,5.61-.08a10.32,10.32,0,0,0,3.3-.63,7,7,0,0,0,4-4,10.33,10.33,0,0,0,.63-3.31c.06-1.45.08-1.91.08-5.6s0-4.16-.08-5.61a10.33,10.33,0,0,0-.63-3.31,7,7,0,0,0-4-4,10.32,10.32,0,0,0-3.3-.63C17.76,0,17.3,0,13.61,0"/><path class="cls-1" d="M13.61,6.62a7,7,0,1,0,7,7,7,7,0,0,0-7-7m0,11.52a4.54,4.54,0,1,1,4.53-4.53,4.53,4.53,0,0,1-4.53,4.53"/><path class="cls-1" d="M22.5,6.34a1.63,1.63,0,1,1-1.63-1.63A1.64,1.64,0,0,1,22.5,6.34"/></g></g></svg>