<svg xmlns="http://www.w3.org/2000/svg" viewBox="0 0 20.79 20.79"><defs><style>.cls-1{fill:#0092d8;}</style></defs><title>Recurso 5</title><g id="Capa_2" data-name="Capa 2"><g id="Capa_1-2" data-name="Capa 1"><g id="post-linkedin"><path class="cls-1" d="M18.71,0H2.08A2.09,2.09,0,0,0,0,2.08V18.71a2.08,2.08,0,0,0,2.08,2.08H18.71a2.08,2.08,0,0,0,2.08-2.08V2.08A2.08,2.08,0,0,0,18.71,0ZM6.24,17.67H3.12V8.32H6.24ZM4.68,6.55A1.87,1.87,0,1,1,6.55,4.68,1.86,1.86,0,0,1,4.68,6.55Zm13,11.12H14.55V12.16a1.56,1.56,0,1,0-3.11,0v5.51H8.32V8.32h3.12V9.56A3.35,3.35,0,0,1,14,8.11a3.68,3.68,0,0,1,3.64,3.64Z"/></g></g></g></svg>