<svg xmlns="http://www.w3.org/2000/svg" viewBox="0 0 19.21 15.61"><defs><style>.cls-1{fill:#009ee2;}</style></defs><title>indoRecurso 78</title><g id="Capa_2" data-name="Capa 2"><g id="Capa_1-2" data-name="Capa 1"><path class="cls-1" d="M6,15.61A11.14,11.14,0,0,0,17.25,4.4c0-.17,0-.34,0-.51a8.13,8.13,0,0,0,2-2,8.2,8.2,0,0,1-2.27.62A4,4,0,0,0,18.68.29a8,8,0,0,1-2.51,1A3.93,3.93,0,0,0,9.36,3.94a3.82,3.82,0,0,0,.1.9A11.17,11.17,0,0,1,1.34.72,3.92,3.92,0,0,0,2.56,6,4,4,0,0,1,.77,5.49v0A3.94,3.94,0,0,0,3.93,9.4a4,4,0,0,1-1,.14,3.64,3.64,0,0,1-.74-.07,3.94,3.94,0,0,0,3.68,2.74A7.9,7.9,0,0,1,.94,13.89,7.3,7.3,0,0,1,0,13.84a11.11,11.11,0,0,0,6,1.77"/></g></g></svg>