<svg xmlns="http://www.w3.org/2000/svg" viewBox="0 0 23.01 18.7"><defs><style>.cls-1{fill:#0092d8;}</style></defs><title>Recurso 3</title><g id="Capa_2" data-name="Capa 2"><g id="Capa_1-2" data-name="Capa 1"><path class="cls-1" d="M7.24,18.7A13.34,13.34,0,0,0,20.67,5.27c0-.21,0-.41,0-.61A9.61,9.61,0,0,0,23,2.21,9.47,9.47,0,0,1,20.3,3,4.82,4.82,0,0,0,22.38.35a9.56,9.56,0,0,1-3,1.14,4.73,4.73,0,0,0-8.17,3.23,4.83,4.83,0,0,0,.12,1.08A13.42,13.42,0,0,1,1.6.86,4.73,4.73,0,0,0,3.06,7.17,4.77,4.77,0,0,1,.93,6.58a.13.13,0,0,0,0,.06,4.74,4.74,0,0,0,3.79,4.63,5,5,0,0,1-1.24.16,5.17,5.17,0,0,1-.89-.08A4.71,4.71,0,0,0,7,14.62a9.46,9.46,0,0,1-5.86,2A10.55,10.55,0,0,1,0,16.58,13.36,13.36,0,0,0,7.24,18.7"/></g></g></svg>