<svg xmlns="http://www.w3.org/2000/svg" viewBox="0 0 20.79 14.62"><defs><style>.cls-1{fill:#009ee2;}</style></defs><title>indoRecurso 77</title><g id="Capa_2" data-name="Capa 2"><g id="Capa_1-2" data-name="Capa 1"><path class="cls-1" d="M20.58,3.15a31.35,31.35,0,0,1,.21,3.37V8.1a31,31,0,0,1-.21,3.36,4.43,4.43,0,0,1-.83,2.06,2.91,2.91,0,0,1-2.08.88c-2.91.21-7.28.22-7.28.22s-5.4,0-7.06-.21A3.54,3.54,0,0,1,1,13.52a4.49,4.49,0,0,1-.82-2.06A31,31,0,0,1,0,8.1V6.52A31.35,31.35,0,0,1,.21,3.15,4.49,4.49,0,0,1,1,1.09,3,3,0,0,1,3.12.21C6,0,10.39,0,10.39,0h0s4.36,0,7.27.21a3,3,0,0,1,2.08.88,4.43,4.43,0,0,1,.83,2.06M8.25,10,13.86,7.1,8.25,4.17Z"/></g></g></svg>