<svg xmlns="http://www.w3.org/2000/svg" viewBox="0 0 24.9 17.52"><defs><style>.cls-1{fill:#0092d8;}</style></defs><title>Recurso 4</title><g id="Capa_2" data-name="Capa 2"><g id="Capa_1-2" data-name="Capa 1"><path class="cls-1" d="M24.66,3.78a38.92,38.92,0,0,1,.24,4V9.7a39.18,39.18,0,0,1-.24,4,5.44,5.44,0,0,1-1,2.47,3.6,3.6,0,0,1-2.5,1.06c-3.48.25-8.72.26-8.72.26S6,17.46,4,17.27A4.28,4.28,0,0,1,1.24,16.2a5.32,5.32,0,0,1-1-2.47A37.63,37.63,0,0,1,0,9.7V7.81a37.39,37.39,0,0,1,.25-4,5.32,5.32,0,0,1,1-2.47A3.6,3.6,0,0,1,3.73.25C7.22,0,12.45,0,12.45,0h0s5.23,0,8.71.25a3.6,3.6,0,0,1,2.5,1.06,5.44,5.44,0,0,1,1,2.47M9.88,12,16.61,8.5,9.88,5Z"/></g></g></svg>